<svg xmlns="http://www.w3.org/2000/svg" viewBox="0 0 1200 500">
  <defs>
    <linearGradient id="bg6" x1="0%" y1="0%" x2="100%" y2="100%">
      <stop offset="0%" style="stop-color:#FF8C42"/>
      <stop offset="100%" style="stop-color:#FFB6D9"/>
    </linearGradient>
  </defs>
  <rect width="1200" height="500" fill="url(#bg6)"/>
  <circle cx="200" cy="80" r="140" fill="white" opacity="0.08"/>
  <circle cx="1000" cy="420" r="185" fill="white" opacity="0.06"/>
  <circle cx="600" cy="250" r="82" fill="white" opacity="0.1"/>
  
  <!-- Light bulb -->
  <circle cx="600" cy="200" r="45" fill="white" stroke="#FF8C42" stroke-width="3"/>
  <rect x="575" y="245" width="50" height="20" rx="5" fill="white" stroke="#FF8C42" stroke-width="3"/>
  <rect x="585" y="265" width="30" height="10" fill="white" stroke="#FF8C42" stroke-width="2"/>
  <rect x="585" y="280" width="30" height="10" fill="white" stroke="#FF8C42" stroke-width="2"/>
  
  <!-- Heart inside bulb -->
  <path d="M 600 180 Q 590 170 580 180 Q 575 190 580 200 Q 590 210 600 218 Q 610 210 620 200 Q 625 190 620 180 Q 610 170 600 180 Z" fill="#FF1493"/>
  
  <!-- Light rays -->
  <line x1="600" y1="100" x2="600" y2="60" stroke="white" stroke-width="4" opacity="0.6"/>
  <line x1="660" y1="120" x2="690" y2="90" stroke="white" stroke-width="4" opacity="0.6"/>
  <line x1="690" y1="180" x2="720" y2="180" stroke="white" stroke-width="4" opacity="0.6"/>
  <line x1="540" y1="120" x2="510" y2="90" stroke="white" stroke-width="4" opacity="0.6"/>
  <line x1="510" y1="180" x2="480" y2="180" stroke="white" stroke-width="4" opacity="0.6"/>
  
  <!-- Decorative shapes -->
  <rect x="300" y="150" width="60" height="60" rx="10" fill="white" opacity="0.12"/>
  <circle cx="850" cy="350" r="50" fill="white" opacity="0.1"/>
  
  <!-- Pattern dots -->
  <circle cx="100" cy="450" r="3" fill="white" opacity="0.2"/>
  <circle cx="300" cy="50" r="2" fill="white" opacity="0.15"/>
  <circle cx="900" cy="100" r="4" fill="white" opacity="0.15"/>
  <circle cx="1100" cy="350" r="3" fill="white" opacity="0.2"/>
</svg>
