<svg xmlns="http://www.w3.org/2000/svg" viewBox="0 0 1200 500">
  <defs>
    <linearGradient id="bg15" x1="0%" y1="0%" x2="100%" y2="100%">
      <stop offset="0%" style="stop-color:#4A90E2"/>
      <stop offset="100%" style="stop-color:#FFB6D9"/>
    </linearGradient>
  </defs>
  <rect width="1200" height="500" fill="url(#bg15)"/>
  <circle cx="180" cy="120" r="130" fill="white" opacity="0.08"/>
  <circle cx="1020" cy="380" r="200" fill="white" opacity="0.06"/>
  <circle cx="600" cy="250" r="80" fill="white" opacity="0.1"/>
  
  <!-- Left location pin -->
  <path d="M 420 200 Q 410 180 420 160 Q 435 150 450 160 Q 460 180 450 200 Q 435 215 420 200 Z" fill="none" stroke="white" stroke-width="3"/>
  <circle cx="435" cy="185" r="6" fill="white"/>
  
  <!-- Right location pin -->
  <path d="M 750 240 Q 740 220 750 200 Q 765 190 780 200 Q 790 220 780 240 Q 765 255 750 240 Z" fill="none" stroke="white" stroke-width="3"/>
  <circle cx="765" cy="225" r="6" fill="white"/>
  
  <!-- Connection line with hearts -->
  <path d="M 450 200 Q 550 180 750 240" fill="none" stroke="#FF1493" stroke-width="4"/>
  
  <!-- Hearts on line -->
  <circle cx="500" cy="195" r="7" fill="#FF1493"/>
  <circle cx="600" cy="185" r="7" fill="#FF1493"/>
  <circle cx="700" cy="220" r="7" fill="#FF1493"/>
  
  <!-- Distance indicator dots -->
  <circle cx="480" cy="190" r="3" fill="white" opacity="0.4"/>
  <circle cx="530" cy="180" r="3" fill="white" opacity="0.4"/>
  <circle cx="580" cy="175" r="3" fill="white" opacity="0.4"/>
  <circle cx="630" cy="180" r="3" fill="white" opacity="0.4"/>
  <circle cx="680" cy="195" r="3" fill="white" opacity="0.4"/>
  <circle cx="720" cy="215" r="3" fill="white" opacity="0.4"/>
  
  <!-- Decorative shapes -->
  <rect x="300" y="130" width="70" height="70" rx="15" fill="white" opacity="0.1"/>
  <circle cx="900" cy="320" r="50" fill="white" opacity="0.12"/>
  
  <!-- Pattern dots -->
  <circle cx="100" cy="450" r="3" fill="white" opacity="0.2"/>
  <circle cx="300" cy="50" r="2" fill="white" opacity="0.15"/>
  <circle cx="900" cy="100" r="4" fill="white" opacity="0.15"/>
  <circle cx="1100" cy="350" r="3" fill="white" opacity="0.2"/>
</svg>
