<svg xmlns="http://www.w3.org/2000/svg" viewBox="0 0 1200 500">
  <defs>
    <linearGradient id="bg2" x1="0%" y1="0%" x2="100%" y2="100%">
      <stop offset="0%" style="stop-color:#FF6B6B"/>
      <stop offset="100%" style="stop-color:#FFB347"/>
    </linearGradient>
  </defs>
  <rect width="1200" height="500" fill="url(#bg2)"/>
  <circle cx="150" cy="80" r="120" fill="white" opacity="0.08"/>
  <circle cx="1050" cy="420" r="180" fill="white" opacity="0.06"/>
  <circle cx="600" cy="250" r="90" fill="white" opacity="0.1"/>
  
  <!-- Chat bubble 1 -->
  <rect x="350" y="180" width="180" height="120" rx="20" fill="white" opacity="0.9"/>
  <path d="M 350 280 L 330 310 L 380 280 Z" fill="white" opacity="0.9"/>
  
  <!-- Chat bubble 2 -->
  <rect x="700" y="220" width="180" height="120" rx="20" fill="white" opacity="0.9"/>
  <path d="M 880 280 L 900 310 L 850 280 Z" fill="white" opacity="0.9"/>
  
  <!-- Hearts in bubbles -->
  <circle cx="395" cy="210" r="10" fill="#FF1493"/>
  <circle cx="420" cy="210" r="10" fill="#FF1493"/>
  <circle cx="445" cy="210" r="10" fill="#FF1493"/>
  
  <circle cx="745" cy="250" r="10" fill="#FF1493"/>
  <circle cx="770" cy="250" r="10" fill="#FF1493"/>
  <circle cx="795" cy="250" r="10" fill="#FF1493"/>
  
  <!-- Decorative elements -->
  <rect x="280" y="100" width="60" height="60" rx="10" fill="white" opacity="0.12"/>
  <rect x="860" y="350" width="80" height="80" rx="15" fill="white" opacity="0.1"/>
  
  <!-- Pattern dots -->
  <circle cx="100" cy="450" r="3" fill="white" opacity="0.2"/>
  <circle cx="300" cy="50" r="2" fill="white" opacity="0.15"/>
  <circle cx="900" cy="100" r="4" fill="white" opacity="0.15"/>
  <circle cx="1100" cy="350" r="3" fill="white" opacity="0.2"/>
</svg>
