<svg xmlns="http://www.w3.org/2000/svg" viewBox="0 0 1200 500">
  <defs>
    <linearGradient id="bg4" x1="0%" y1="0%" x2="100%" y2="100%">
      <stop offset="0%" style="stop-color:#00B4D8"/>
      <stop offset="100%" style="stop-color:#FF006E"/>
    </linearGradient>
  </defs>
  <rect width="1200" height="500" fill="url(#bg4)"/>
  <circle cx="180" cy="140" r="130" fill="white" opacity="0.08"/>
  <circle cx="1020" cy="360" r="210" fill="white" opacity="0.06"/>
  <circle cx="600" cy="250" r="85" fill="white" opacity="0.1"/>
  
  <!-- Envelope -->
  <rect x="420" y="200" width="360" height="200" rx="10" fill="white" stroke="#00B4D8" stroke-width="3"/>
  <path d="M 420 200 L 600 310 L 780 200" fill="none" stroke="#00B4D8" stroke-width="3"/>
  
  <!-- Letter flap -->
  <path d="M 420 200 L 600 320 L 780 200 Z" fill="white" opacity="0.5"/>
  
  <!-- Heart stamp -->
  <circle cx="720" cy="230" r="30" fill="none" stroke="#FF006E" stroke-width="2"/>
  <path d="M 720 215 Q 710 205 700 215 Q 695 225 700 235 Q 710 245 720 253 Q 730 245 740 235 Q 745 225 740 215 Q 730 205 720 215 Z" fill="#FF006E"/>
  
  <!-- Decorative elements -->
  <rect x="300" y="130" width="70" height="70" rx="15" fill="white" opacity="0.12" transform="rotate(20 335 165)"/>
  <circle cx="850" cy="350" r="45" fill="white" opacity="0.1"/>
  <path d="M 250 350 Q 270 330 290 350 Q 270 370 250 350 Z" fill="white" opacity="0.12"/>
  
  <!-- Pattern dots -->
  <circle cx="100" cy="450" r="3" fill="white" opacity="0.2"/>
  <circle cx="300" cy="50" r="2" fill="white" opacity="0.15"/>
  <circle cx="900" cy="100" r="4" fill="white" opacity="0.15"/>
  <circle cx="1100" cy="350" r="3" fill="white" opacity="0.2"/>
</svg>
