<svg xmlns="http://www.w3.org/2000/svg" viewBox="0 0 1200 500">
  <defs>
    <linearGradient id="bg10" x1="0%" y1="0%" x2="100%" y2="100%">
      <stop offset="0%" style="stop-color:#FFD700"/>
      <stop offset="100%" style="stop-color:#FFB6D9"/>
    </linearGradient>
  </defs>
  <rect width="1200" height="500" fill="url(#bg10)"/>
  <circle cx="220" cy="90" r="145" fill="white" opacity="0.08"/>
  <circle cx="980" cy="410" r="185" fill="white" opacity="0.06"/>
  <circle cx="600" cy="250" r="80" fill="white" opacity="0.1"/>
  
  <!-- Left champagne glass -->
  <polygon points="500,330 480,250 520,250 540,330" fill="none" stroke="white" stroke-width="3"/>
  <ellipse cx="510" cy="330" rx="20" ry="8" fill="none" stroke="white" stroke-width="3"/>
  
  <!-- Right champagne glass -->
  <polygon points="700,330 680,250 720,250 740,330" fill="none" stroke="white" stroke-width="3"/>
  <ellipse cx="710" cy="330" rx="20" ry="8" fill="none" stroke="white" stroke-width="3"/>
  
  <!-- Bubbles in left glass -->
  <circle cx="505" cy="290" r="4" fill="white" opacity="0.6"/>
  <circle cx="515" cy="310" r="3" fill="white" opacity="0.5"/>
  <circle cx="510" cy="325" r="3" fill="white" opacity="0.5"/>
  
  <!-- Bubbles in right glass -->
  <circle cx="705" cy="295" r="4" fill="white" opacity="0.6"/>
  <circle cx="720" cy="315" r="3" fill="white" opacity="0.5"/>
  <circle cx="710" cy="325" r="3" fill="white" opacity="0.5"/>
  
  <!-- Heart between glasses -->
  <path d="M 600 200 Q 590 190 580 200 Q 575 210 580 220 Q 590 230 600 238 Q 610 230 620 220 Q 625 210 620 200 Q 610 190 600 200 Z" fill="#FF1493"/>
  
  <!-- Sparkles -->
  <circle cx="460" cy="180" r="6" fill="#FFD700"/>
  <path d="M 460 165 L 465 180 L 460 195 L 455 180 Z" fill="#FFD700"/>
  
  <circle cx="760" cy="190" r="5" fill="#FFD700"/>
  <path d="M 760 178 L 764 190 L 760 202 L 756 190 Z" fill="#FFD700"/>
  
  <!-- Decorative shapes -->
  <rect x="300" y="160" width="60" height="60" rx="10" fill="white" opacity="0.12"/>
  <circle cx="850" cy="320" r="50" fill="white" opacity="0.1"/>
  
  <!-- Pattern dots -->
  <circle cx="100" cy="450" r="3" fill="white" opacity="0.2"/>
  <circle cx="300" cy="50" r="2" fill="white" opacity="0.15"/>
  <circle cx="900" cy="100" r="4" fill="white" opacity="0.15"/>
  <circle cx="1100" cy="350" r="3" fill="white" opacity="0.2"/>
</svg>
