<svg xmlns="http://www.w3.org/2000/svg" viewBox="0 0 220 50">
  <!-- Heart icon -->
  <path d="M20 14C17 8 11 8 7.5 11.5C3.5 15.5 4 22 8 26L20 38L32 26C36 22 36.5 15.5 32.5 11.5C29 8 23 8 20 14Z" fill="#ef4444"/>
  <!-- M -->
  <path d="M44 12H51L56 28L61 12H68V36H63V18L58 36H54L49 18V36H44V12Z" fill="#ef4444"/>
  <!-- i -->
  <path d="M73 6H78V11H73V6ZM73 15H78V36H73V15Z" fill="#ef4444"/>
  <!-- c -->
  <path d="M87.5 36.5C83 36.5 80 33 80 28C80 23 83 19.5 87.5 19.5C91.5 19.5 94 22 94.5 25.5H89.5C89 23.5 88.5 22.5 87.5 22.5C85.5 22.5 84.5 24.5 84.5 28C84.5 31.5 85.5 33.5 87.5 33.5C88.5 33.5 89.5 32.5 89.5 30.5H94.5C94 34 91.5 36.5 87.5 36.5Z" fill="#ef4444"/>
  <!-- h -->
  <path d="M97 6H102V19C103.5 16.5 106 15 109 15C113 15 115.5 18 115.5 22.5V36H110.5V23.5C110.5 20.5 109 19 107 19C104.5 19 102 21 102 24V36H97V6Z" fill="#ef4444"/>
  <!-- V -->
  <path d="M122 12H127.5L133 28.5L138.5 12H144L136 36H130L122 12Z" fill="white"/>
  <!-- e -->
  <path d="M150 36.5C145 36.5 142 33 142 28C142 23 145 19.5 150 19.5C154.5 19.5 157.5 22.5 157.5 27.5V29H147C147.5 32 149 33.5 151 33.5C152.7 33.5 153.8 32.7 154.3 31.2H159C158 35 155 36.5 150 36.5ZM147 26H153C152.7 23.7 151.5 22.5 150 22.5C148.2 22.5 147 23.7 147 26Z" fill="white"/>
  <!-- r -->
  <path d="M161 15H166V20C167 17 169 15 172 15V20.5H171C168 20.5 166 22 166 25V36H161V15Z" fill="white"/>
  <!-- l -->
  <path d="M175 6H180V36H175V6Z" fill="white"/>
  <!-- i -->
  <path d="M184 6H189V11H184V6ZM184 15H189V36H184V15Z" fill="white"/>
  <!-- e -->
  <path d="M198 36.5C193 36.5 190 33 190 28C190 23 193 19.5 198 19.5C202.5 19.5 205.5 22.5 205.5 27.5V29H195C195.5 32 197 33.5 199 33.5C200.7 33.5 201.8 32.7 202.3 31.2H207C206 35 203 36.5 198 36.5ZM195 26H201C200.7 23.7 199.5 22.5 198 22.5C196.2 22.5 195 23.7 195 26Z" fill="white"/>
  <!-- b -->
  <path d="M210 6H215V19C216.5 16.5 219 15 222 15C226 15 228.5 18 228.5 22.5V36H223.5V23.5C223.5 20.5 222 19 220 19C217.5 19 215 21 215 24V36H210V6Z" fill="white"/>
</svg>