<svg xmlns="http://www.w3.org/2000/svg" viewBox="0 0 160 40" fill="white">
  <!-- Flame -->
  <path d="M14.5 2C14.5 2 11 8 8.5 12.5C5.5 17.8 3 22 3 26.5C3 33.4 8 38 14.5 38C21 38 26 33.4 26 26.5C26 22 23.5 17.8 20.5 12.5C18 8 14.5 2 14.5 2ZM14.5 34C10.4 34 7 30.6 7 26.5C7 23.2 8.8 19.5 11.5 14.8C12.8 12.5 14 10.5 14.5 9.5C15 10.5 16.2 12.5 17.5 14.8C20.2 19.5 22 23.2 22 26.5C22 30.6 18.6 34 14.5 34Z"/>
  <!-- x -->
  <path d="M40.5 30.5L34 21L40 12H35.5L31.5 18L27.5 12H23L29 21L22.5 30.5H27L31.5 24L36 30.5H40.5Z"/>
  <!-- l -->
  <path d="M44 30.5V8H48.5V30.5H44Z"/>
  <!-- o -->
  <path d="M58 31C53.5 31 50 27.5 50 22.5C50 17.5 53.5 14 58 14C62.5 14 66 17.5 66 22.5C66 27.5 62.5 31 58 31ZM58 27C60.2 27 61.5 25.2 61.5 22.5C61.5 19.8 60.2 18 58 18C55.8 18 54.5 19.8 54.5 22.5C54.5 25.2 55.8 27 58 27Z"/>
  <!-- v -->
  <path d="M76 30.5L68.5 14H73.5L78 25.5L82.5 14H87.5L80 30.5H76Z"/>
  <!-- e -->
  <path d="M95 31C90 31 87 27.5 87 22.5C87 17.5 90 14 95 14C99.5 14 102.5 17 102.5 22V23.5H91.5C92 26 93.5 27.5 95.5 27.5C97.2 27.5 98.3 26.7 98.8 25.2H103C102 29 99 31 95 31ZM91.5 20.5H98C97.7 18.2 96.5 17 95 17C93.2 17 92 18.2 91.5 20.5Z"/>
  <!-- s -->
  <path d="M112.5 31C108.5 31 105.5 29 105.5 26H110C110 27.2 111 28 112.5 28C114 28 115 27.3 115 26.2C115 25 113.5 24.5 111.5 24C109 23.3 105.5 22.5 105.5 18.5C105.5 15.5 108.5 14 112 14C116 14 118.5 16 118.5 19H114C114 17.8 113 17 112 17C110.8 17 110 17.7 110 18.5C110 19.7 111.5 20 113.5 20.7C116 21.5 119.5 22.2 119.5 26C119.5 29 116.5 31 112.5 31Z"/>
</svg>
