<svg xmlns="http://www.w3.org/2000/svg" viewBox="0 0 1200 500">
  <defs>
    <linearGradient id="bg8" x1="0%" y1="0%" x2="100%" y2="100%">
      <stop offset="0%" style="stop-color:#4A90E2"/>
      <stop offset="100%" style="stop-color:#708090"/>
    </linearGradient>
  </defs>
  <rect width="1200" height="500" fill="url(#bg8)"/>
  <circle cx="250" cy="100" r="130" fill="white" opacity="0.08"/>
  <circle cx="950" cy="400" r="190" fill="white" opacity="0.06"/>
  <circle cx="600" cy="250" r="80" fill="white" opacity="0.1"/>
  
  <!-- Ghost body -->
  <path d="M 550 160 Q 550 140 570 140 Q 590 140 590 160 L 590 280 Q 570 310 550 310 Q 530 310 530 280 Z" fill="white" stroke="#4A90E2" stroke-width="2"/>
  
  <!-- Wavy bottom -->
  <path d="M 530 280 Q 540 290 550 280 Q 560 290 570 280 Q 580 290 590 280" fill="none" stroke="white" stroke-width="2"/>
  <path d="M 530 290 Q 540 298 550 290 Q 560 298 570 290 Q 580 298 590 290" fill="none" stroke="white" stroke-width="2"/>
  
  <!-- Eyes -->
  <circle cx="560" cy="190" r="8" fill="#4A90E2"/>
  <circle cx="580" cy="190" r="8" fill="#4A90E2"/>
  
  <!-- Sad mouth -->
  <path d="M 565 220 Q 570 210 575 220" fill="none" stroke="#4A90E2" stroke-width="2"/>
  
  <!-- Fading effect ghosts -->
  <path d="M 650 200 Q 650 185 665 185 Q 675 185 675 200 L 675 290 Q 660 310 650 310 Q 640 310 640 290 Z" fill="white" opacity="0.4" stroke="#708090" stroke-width="2" stroke-dasharray="5,5"/>
  
  <path d="M 720 220 Q 720 205 735 205 Q 745 205 745 220 L 745 300 Q 730 315 720 315 Q 710 315 710 300 Z" fill="white" opacity="0.2" stroke="#708090" stroke-width="2" stroke-dasharray="5,5"/>
  
  <!-- Decorative shapes -->
  <rect x="300" y="120" width="65" height="65" rx="15" fill="white" opacity="0.1"/>
  <circle cx="850" cy="340" r="45" fill="white" opacity="0.12"/>
  
  <!-- Pattern dots -->
  <circle cx="100" cy="450" r="3" fill="white" opacity="0.2"/>
  <circle cx="300" cy="50" r="2" fill="white" opacity="0.15"/>
  <circle cx="900" cy="100" r="4" fill="white" opacity="0.15"/>
  <circle cx="1100" cy="350" r="3" fill="white" opacity="0.2"/>
</svg>
