<svg xmlns="http://www.w3.org/2000/svg" viewBox="0 0 150 50">
  <!-- S -->
  <path d="M16 36.5C11.5 36.5 8 34 8 30.5H13C13 32 14.5 33 16 33C18 33 19.5 32 19.5 30.5C19.5 28.5 17.5 28 15 27C12 26 8.5 24.5 8.5 20C8.5 16 12 13.5 16.5 13.5C21 13.5 24 16 24 19.5H19C19 18 17.5 17 16.5 17C15 17 14 17.8 14 19.5C14 21 16 21.5 18.5 22.5C21.5 23.5 25 25 25 30C25 34 21 36.5 16 36.5Z" fill="#9ca3af"/>
  <!-- e -->
  <path d="M33 36.5C28 36.5 25 33 25 28C25 23 28 19.5 33 19.5C37.5 19.5 40.5 22.5 40.5 27.5V29H30C30.5 32 32 33.5 34 33.5C35.7 33.5 36.8 32.7 37.3 31.2H42C41 35 38 36.5 33 36.5ZM30 26H36C35.7 23.7 34.5 22.5 33 22.5C31.2 22.5 30 23.7 30 26Z" fill="#9ca3af"/>
  <!-- x -->
  <path d="M52 36L46 27.5L51.5 19H57L53 25.5L58.5 36H53L50.5 30.5L47.5 36H43L49 27.5L43.5 19H49L52 24.5L55 19H60.5L55 27.5L61 36H55.5Z" fill="#9ca3af"/>
  <!-- 69 stylized -->
  <text x="68" y="36" font-family="Arial, sans-serif" font-size="30" font-weight="bold" fill="#f43f5e">69</text>
  <!-- Subtle accent line -->
  <rect x="8" y="42" width="130" height="2" rx="1" fill="#f43f5e" opacity="0.3"/>
</svg>