<svg xmlns="http://www.w3.org/2000/svg" viewBox="0 0 200 50">
  <!-- Hearts decoration -->
  <path d="M8 18C6.5 15 4 15 2.5 16.5C0.5 18.5 1 21 3 23L8 28L13 23C15 21 15.5 18.5 13.5 16.5C12 15 9.5 15 8 18Z" fill="#f43f5e" opacity="0.6"/>
  <!-- S -->
  <path d="M26 36.5C21.5 36.5 18 34 18 30.5H23C23 32 24.5 33 26 33C28 33 29.5 32 29.5 30.5C29.5 28.5 27.5 28 25 27C22 26 18.5 24.5 18.5 20C18.5 16 22 13.5 26.5 13.5C31 13.5 34 16 34 19.5H29C29 18 27.5 17 26.5 17C25 17 24 17.8 24 19.5C24 21 26 21.5 28.5 22.5C31.5 23.5 35 25 35 30C35 34 31 36.5 26 36.5Z" fill="white"/>
  <!-- i -->
  <path d="M37 6H42V11H37V6ZM37 15H42V36H37V15Z" fill="white"/>
  <!-- n -->
  <path d="M46 15H51V19C52.5 16.5 55 15 58 15C62 15 64.5 18 64.5 22.5V36H59.5V23.5C59.5 20.5 58 19 56 19C53.5 19 51 21 51 24V36H46V15Z" fill="white"/>
  <!-- g -->
  <path d="M68 15H73V18.5C74.5 16.5 77 15 80 15C84.5 15 88 19 88 25C88 31 84.5 35 80 35C77 35 74.5 33.5 73 31.5V44H68V15ZM79 31C82 31 83.5 28.5 83.5 25C83.5 21.5 82 19 79 19C76 19 73 21.5 73 25C73 28.5 76 31 79 31Z" fill="white"/>
  <!-- l -->
  <path d="M91 6H96V36H91V6Z" fill="white"/>
  <!-- e -->
  <path d="M105 36.5C100 36.5 97 33 97 28C97 23 100 19.5 105 19.5C109.5 19.5 112.5 22.5 112.5 27.5V29H102C102.5 32 104 33.5 106 33.5C107.7 33.5 108.8 32.7 109.3 31.2H114C113 35 110 36.5 105 36.5ZM102 26H108C107.7 23.7 106.5 22.5 105 22.5C103.2 22.5 102 23.7 102 26Z" fill="white"/>
  <!-- s -->
  <path d="M121 36.5C117 36.5 114 34.5 114 31.5H119C119 32.7 120 33.5 121.5 33.5C123 33.5 124 32.8 124 31.7C124 30.5 122.5 30 120.5 29.5C118 28.8 114.5 28 114.5 24C114.5 21 117.5 19 121 19C125 19 127.5 21 127.5 24H123C123 22.8 122 22 121 22C119.8 22 119 22.7 119 23.5C119 24.7 120.5 25 122.5 25.7C125 26.5 128.5 27.2 128.5 31.5C128.5 34.5 125 36.5 121 36.5Z" fill="white"/>
  <!-- 69 -->
  <text x="134" y="36" font-family="Arial, sans-serif" font-size="26" font-weight="bold" fill="#f43f5e">69</text>
  <!-- Heart decoration right -->
  <path d="M190 14C188.5 11 186 11 184.5 12.5C182.5 14.5 183 17 185 19L190 24L195 19C197 17 197.5 14.5 195.5 12.5C194 11 191.5 11 190 14Z" fill="#f43f5e" opacity="0.4"/>
</svg>