<svg xmlns="http://www.w3.org/2000/svg" viewBox="0 0 200 50">
  <!-- Heart icon -->
  <path d="M18 10C15.5 6 11 6 8.5 8.5C5.5 11.5 6 16 9 19L18 28L27 19C30 16 30.5 11.5 27.5 8.5C25 6 20.5 6 18 10Z" fill="#22c55e"/>
  <!-- W -->
  <path d="M40 12H45L48 26L52 12H56L60 26L63 12H68L62 36H58L54 22L50 36H46L40 12Z" fill="#22c55e"/>
  <!-- h -->
  <path d="M70 6H75V18C76.5 15.5 79 14 82 14C86 14 88.5 17 88.5 21.5V36H83.5V22.5C83.5 19.5 82 18 80 18C77.5 18 75 20 75 23V36H70V6Z" fill="#22c55e"/>
  <!-- a -->
  <path d="M97 36.5C93 36.5 90 34 90 30.5C90 27 93 25 97.5 25H103V24C103 20.5 101.5 19 99 19C97 19 95.5 20 95 22H90.5C91 17 94.5 14 99.5 14C105 14 108 17.5 108 23V36H103.5V33C102 35.5 99.5 36.5 97 36.5ZM98 32.5C100.5 32.5 103 30.5 103 28V28.5H98C96 28.5 94.5 29.5 94.5 31C94.5 32 95.5 32.5 98 32.5Z" fill="#22c55e"/>
  <!-- t -->
  <path d="M112 8H117V15H122V19.5H117V28.5C117 30.5 117.5 31 119 31H122V36H118C114 36 112 34 112 30V19.5H108.5V15H112V8Z" fill="#22c55e"/>
  <!-- s -->
  <path d="M130 36.5C126 36.5 123 34.5 123 31.5H128C128 32.7 129 33.5 130.5 33.5C132 33.5 133 32.8 133 31.7C133 30.5 131.5 30 129.5 29.5C127 28.8 123.5 28 123.5 24C123.5 21 126.5 19 130 19C134 19 136.5 21 136.5 24H132C132 22.8 131 22 130 22C128.8 22 128 22.7 128 23.5C128 24.7 129.5 25 131.5 25.7C134 26.5 137.5 27.2 137.5 31.5C137.5 34.5 134 36.5 130 36.5Z" fill="#22c55e"/>
  <!-- M -->
  <path d="M143 12H149L154 28L159 12H165V36H160V18L155 36H153L148 18V36H143V12Z" fill="white"/>
  <!-- e -->
  <path d="M175 36.5C170 36.5 167 33 167 28C167 23 170 19.5 175 19.5C179.5 19.5 182.5 22.5 182.5 27.5V29H172C172.5 32 174 33.5 176 33.5C177.7 33.5 178.8 32.7 179.3 31.2H184C183 35 180 36.5 175 36.5ZM172 26H178C177.7 23.7 176.5 22.5 175 22.5C173.2 22.5 172 23.7 172 26Z" fill="white"/>
  <!-- e -->
  <path d="M191 36.5C186 36.5 183 33 183 28C183 23 186 19.5 191 19.5C195.5 19.5 198.5 22.5 198.5 27.5V29H188C188.5 32 190 33.5 192 33.5C193.7 33.5 194.8 32.7 195.3 31.2H200C199 35 196 36.5 191 36.5ZM188 26H194C193.7 23.7 192.5 22.5 191 22.5C189.2 22.5 188 23.7 188 26Z" fill="white"/>
  <!-- t -->
  <path d="M203 8H208V15H213V19.5H208V28.5C208 30.5 208.5 31 210 31H213V36H209C205 36 203 34 203 30V19.5H200V15H203V8Z" fill="white"/>
</svg>