<svg xmlns="http://www.w3.org/2000/svg" viewBox="0 0 220 50">
  <!-- O -->
  <path d="M16 36.5C10 36.5 6 32 6 25C6 18 10 13.5 16 13.5C22 13.5 26 18 26 25C26 32 22 36.5 16 36.5ZM16 32C19 32 21 29 21 25C21 21 19 18 16 18C13 18 11 21 11 25C11 29 13 32 16 32Z" fill="white"/>
  <!-- n -->
  <path d="M29 15H34V19C35.5 16.5 38 15 41 15C45 15 47.5 18 47.5 22.5V36H42.5V23.5C42.5 20.5 41 19 39 19C36.5 19 34 21 34 24V36H29V15Z" fill="white"/>
  <!-- l -->
  <path d="M51 6H56V36H51V6Z" fill="white"/>
  <!-- y -->
  <path d="M59 15H64.5L69 28L73.5 15H79L71 38C69.5 42 67 44 63.5 44H60V40H63C64.5 40 65.5 39 66 37.5L59 15Z" fill="white"/>
  <!-- D -->
  <path d="M84 12H93C100 12 105 17 105 24C105 31 100 36 93 36H84V12ZM93 31.5C97 31.5 100 28.5 100 24C100 19.5 97 16.5 93 16.5H89V31.5H93Z" fill="#3b82f6"/>
  <!-- a -->
  <path d="M113 36.5C109 36.5 106 34 106 30.5C106 27 109 25 113.5 25H119V24C119 20.5 117.5 19 115 19C113 19 111.5 20 111 22H106.5C107 17 110.5 14 115.5 14C121 14 124 17.5 124 23V36H119.5V33C118 35.5 115.5 36.5 113 36.5ZM114 32.5C116.5 32.5 119 30.5 119 28V28.5H114C112 28.5 110.5 29.5 110.5 31C110.5 32 111.5 32.5 114 32.5Z" fill="#3b82f6"/>
  <!-- t -->
  <path d="M128 8H133V15H138V19.5H133V28.5C133 30.5 133.5 31 135 31H138V36H134C130 36 128 34 128 30V19.5H125V15H128V8Z" fill="#3b82f6"/>
  <!-- e -->
  <path d="M146 36.5C141 36.5 138 33 138 28C138 23 141 19.5 146 19.5C150.5 19.5 153.5 22.5 153.5 27.5V29H143C143.5 32 145 33.5 147 33.5C148.7 33.5 149.8 32.7 150.3 31.2H155C154 35 151 36.5 146 36.5ZM143 26H149C148.7 23.7 147.5 22.5 146 22.5C144.2 22.5 143 23.7 143 26Z" fill="#3b82f6"/>
  <!-- s -->
  <path d="M162 36.5C158 36.5 155 34.5 155 31.5H160C160 32.7 161 33.5 162.5 33.5C164 33.5 165 32.8 165 31.7C165 30.5 163.5 30 161.5 29.5C159 28.8 155.5 28 155.5 24C155.5 21 158.5 19 162 19C166 19 168.5 21 168.5 24H164C164 22.8 163 22 162 22C160.8 22 160 22.7 160 23.5C160 24.7 161.5 25 163.5 25.7C166 26.5 169.5 27.2 169.5 31.5C169.5 34.5 166 36.5 162 36.5Z" fill="#3b82f6"/>
  <!-- 69 -->
  <text x="175" y="36" font-family="Arial, sans-serif" font-size="26" font-weight="bold" fill="#f43f5e">69</text>
</svg>