<svg xmlns="http://www.w3.org/2000/svg" viewBox="0 0 280 60" width="280" height="60">
  <!-- Heart 1 -->
  <g transform="translate(8, 8) scale(0.85)">
    <path d="M12 21.35l-1.45-1.32C5.4 15.36 2 12.28 2 8.5 2 5.42 4.42 3 7.5 3c1.74 0 3.41.81 4.5 2.09C13.09 3.81 14.76 3 16.5 3 19.58 3 22 5.42 22 8.5c0 3.78-3.4 6.86-8.55 11.54L12 21.35z" fill="#e74c6f"/>
  </g>
  <!-- Heart 2 (overlapping) -->
  <g transform="translate(22, 5) scale(0.75)">
    <path d="M12 21.35l-1.45-1.32C5.4 15.36 2 12.28 2 8.5 2 5.42 4.42 3 7.5 3c1.74 0 3.41.81 4.5 2.09C13.09 3.81 14.76 3 16.5 3 19.58 3 22 5.42 22 8.5c0 3.78-3.4 6.86-8.55 11.54L12 21.35z" fill="#f48da7"/>
  </g>
  <!-- Text "Single" -->
  <text x="52" y="30" font-family="Arial, Helvetica, sans-serif" font-size="26" font-weight="700" fill="#2d2d2d" letter-spacing="-0.5">Single</text>
  <!-- Text "Scout" -->
  <text x="145" y="30" font-family="Arial, Helvetica, sans-serif" font-size="26" font-weight="700" fill="#e74c6f" letter-spacing="-0.5">Scout</text>
  <!-- Tagline -->
  <text x="52" y="48" font-family="Arial, Helvetica, sans-serif" font-size="10" fill="#888" letter-spacing="0.5">Wo echte Verbindungen entstehen</text>
</svg>
